<?xml version="1.0" encoding="UTF-8" standalone="no"?>
<svg
   xmlns:dc="http://purl.org/dc/elements/1.1/"
   xmlns:cc="http://creativecommons.org/ns#"
   xmlns:rdf="http://www.w3.org/1999/02/22-rdf-syntax-ns#"
   xmlns:svg="http://www.w3.org/2000/svg"
   xmlns="http://www.w3.org/2000/svg"
   xmlns:sodipodi="http://sodipodi.sourceforge.net/DTD/sodipodi-0.dtd"
   xmlns:inkscape="http://www.inkscape.org/namespaces/inkscape"
   fill="#000000"
   width="800px"
   height="800px"
   viewBox="0 0 24 24"
   version="1.1"
   id="svg845"
   sodipodi:docname="pencil-yellow.svg"
   inkscape:version="1.0.2-2 (e86c870879, 2021-01-15)">
  <metadata
     id="metadata851">
    <rdf:RDF>
      <cc:Work
         rdf:about="">
        <dc:format>image/svg+xml</dc:format>
        <dc:type
           rdf:resource="http://purl.org/dc/dcmitype/StillImage" />
        <dc:title></dc:title>
      </cc:Work>
    </rdf:RDF>
  </metadata>
  <defs
     id="defs849" />
  <sodipodi:namedview
     pagecolor="#ffffff"
     bordercolor="#666666"
     borderopacity="1"
     objecttolerance="10"
     gridtolerance="10"
     guidetolerance="10"
     inkscape:pageopacity="0"
     inkscape:pageshadow="2"
     inkscape:window-width="1920"
     inkscape:window-height="1009"
     id="namedview847"
     showgrid="false"
     inkscape:zoom="1.0525"
     inkscape:cx="400"
     inkscape:cy="400"
     inkscape:window-x="-8"
     inkscape:window-y="-8"
     inkscape:window-maximized="1"
     inkscape:current-layer="svg845" />
  <path
     d="M17.764,2A4.2,4.2,0,0,0,14.77,3.241L3.155,14.855a1,1,0,0,0-.28.55l-.863,5.438a1,1,0,0,0,1.145,1.145L8.6,21.125a1,1,0,0,0,.55-.28L20.759,9.23a4.236,4.236,0,0,0-3-7.23ZM7.96,19.2,4.2,19.8l.6-3.757,8.39-8.391,3.162,3.162ZM19.345,7.816,17.765,9.4,14.6,6.235l1.581-1.58a2.289,2.289,0,0,1,3.161,0,2.234,2.234,0,0,1,0,3.161Z"
     id="path843"
     style="fill:#ffff00" />
</svg>
