<?xml version="1.0" encoding="UTF-8" standalone="no"?>
<svg
   xmlns:dc="http://purl.org/dc/elements/1.1/"
   xmlns:cc="http://creativecommons.org/ns#"
   xmlns:rdf="http://www.w3.org/1999/02/22-rdf-syntax-ns#"
   xmlns:svg="http://www.w3.org/2000/svg"
   xmlns="http://www.w3.org/2000/svg"
   xmlns:sodipodi="http://sodipodi.sourceforge.net/DTD/sodipodi-0.dtd"
   xmlns:inkscape="http://www.inkscape.org/namespaces/inkscape"
   width="800px"
   height="800px"
   viewBox="0 0 24 24"
   fill="none"
   version="1.1"
   id="svg857"
   sodipodi:docname="trush-square-svgrepo-com.svg"
   inkscape:version="1.0.2-2 (e86c870879, 2021-01-15)">
  <metadata
     id="metadata863">
    <rdf:RDF>
      <cc:Work
         rdf:about="">
        <dc:format>image/svg+xml</dc:format>
        <dc:type
           rdf:resource="http://purl.org/dc/dcmitype/StillImage" />
        <dc:title></dc:title>
      </cc:Work>
    </rdf:RDF>
  </metadata>
  <defs
     id="defs861" />
  <sodipodi:namedview
     pagecolor="#ffffff"
     bordercolor="#666666"
     borderopacity="1"
     objecttolerance="10"
     gridtolerance="10"
     guidetolerance="10"
     inkscape:pageopacity="0"
     inkscape:pageshadow="2"
     inkscape:window-width="1920"
     inkscape:window-height="1009"
     id="namedview859"
     showgrid="false"
     inkscape:zoom="1.0525"
     inkscape:cx="400"
     inkscape:cy="400"
     inkscape:window-x="-8"
     inkscape:window-y="-8"
     inkscape:window-maximized="1"
     inkscape:current-layer="svg857" />
  <path
     d="M15 22.75H9C3.57 22.75 1.25 20.43 1.25 15V9C1.25 3.57 3.57 1.25 9 1.25H15C20.43 1.25 22.75 3.57 22.75 9V15C22.75 20.43 20.43 22.75 15 22.75ZM9 2.75C4.39 2.75 2.75 4.39 2.75 9V15C2.75 19.61 4.39 21.25 9 21.25H15C19.61 21.25 21.25 19.61 21.25 15V9C21.25 4.39 19.61 2.75 15 2.75H9Z"
     fill="#000000"
     id="path849"
     style="fill:#666666" />
  <path
     d="M17.9 9.8C17.88 9.8 17.85 9.8 17.83 9.8C14.37 9.46 10.93 9.31999 7.52003 9.66999L6.18002 9.8C5.76002 9.84 5.40002 9.54 5.36002 9.13C5.32002 8.72 5.62002 8.34999 6.03002 8.30999L7.37002 8.17999C10.88 7.82999 14.42 7.95999 17.98 8.30999C18.39 8.34999 18.69 8.72 18.65 9.13C18.61 9.51 18.28 9.8 17.9 9.8Z"
     fill="#000000"
     id="path851"
     style="fill:#666666" />
  <path
     d="M14.29 9.14001C13.93 9.14001 13.61 8.88002 13.55 8.52002L13.41 7.67001C13.39 7.53001 13.35 7.31001 13.31 7.26001C13.31 7.26001 13.21 7.20001 12.85 7.20001H11.13C10.76 7.20001 10.66 7.26001 10.66 7.26001C10.64 7.30001 10.6 7.52002 10.58 7.66002L10.44 8.52002C10.37 8.93002 9.97999 9.20001 9.57999 9.14001C9.16999 9.07001 8.89999 8.68001 8.95999 8.28001L9.09999 7.42001C9.20999 6.78001 9.38999 5.71002 11.13 5.71002H12.85C14.6 5.71002 14.78 6.83001 14.88 7.43001L15.02 8.28001C15.09 8.69001 14.81 9.08001 14.41 9.14001C14.38 9.14001 14.33 9.14001 14.29 9.14001Z"
     fill="#000000"
     id="path853"
     style="fill:#666666" />
  <path
     d="M14.1 18.31H9.89C7.36 18.31 7.24999 16.79 7.17999 15.78L6.75 9.16999C6.72 8.75999 7.03999 8.39999 7.44999 8.36999C7.86999 8.33999 8.22 8.66 8.25 9.07L8.67999 15.67C8.74999 16.65 8.76 16.8 9.89 16.8H14.1C15.23 16.8 15.24 16.65 15.31 15.67L15.74 9.07C15.77 8.66 16.11 8.33999 16.54 8.36999C16.95 8.39999 17.27 8.74999 17.24 9.16999L16.81 15.77C16.74 16.79 16.64 18.31 14.1 18.31Z"
     fill="#000000"
     id="path855"
     style="fill:#666666" />
</svg>
