<?xml version="1.0" encoding="UTF-8" standalone="no"?>
<svg
   xmlns:dc="http://purl.org/dc/elements/1.1/"
   xmlns:cc="http://creativecommons.org/ns#"
   xmlns:rdf="http://www.w3.org/1999/02/22-rdf-syntax-ns#"
   xmlns:svg="http://www.w3.org/2000/svg"
   xmlns="http://www.w3.org/2000/svg"
   xmlns:sodipodi="http://sodipodi.sourceforge.net/DTD/sodipodi-0.dtd"
   xmlns:inkscape="http://www.inkscape.org/namespaces/inkscape"
   viewBox="0 0 24 24"
   width="24"
   height="24"
   version="1.1"
   id="svg845"
   sodipodi:docname="browser.svg"
   inkscape:version="1.0.2-2 (e86c870879, 2021-01-15)">
  <metadata
     id="metadata851">
    <rdf:RDF>
      <cc:Work
         rdf:about="">
        <dc:format>image/svg+xml</dc:format>
        <dc:type
           rdf:resource="http://purl.org/dc/dcmitype/StillImage" />
        <dc:title></dc:title>
      </cc:Work>
    </rdf:RDF>
  </metadata>
  <defs
     id="defs849">
    <filter
       style="color-interpolation-filters:sRGB;"
       inkscape:label="Cross Blur"
       id="filter980">
      <feColorMatrix
         in="SourceGraphic"
         values="1 0 0 0 0 0 1 0 0 0 0 0 1 0 0 -0.2125 -0.7154 -0.0721 1 0 "
         result="colormatrix"
         id="feColorMatrix970" />
      <feComposite
         in="SourceGraphic"
         in2="colormatrix"
         operator="arithmetic"
         k2="1"
         k3="0"
         k4="0"
         result="composite"
         id="feComposite972" />
      <feGaussianBlur
         stdDeviation="5 0.01"
         result="blur1"
         id="feGaussianBlur974" />
      <feGaussianBlur
         in="composite"
         stdDeviation="0.01 5"
         result="blur2"
         id="feGaussianBlur976" />
      <feBlend
         in="blur2"
         in2="blur1"
         mode="darken"
         result="blend"
         id="feBlend978" />
    </filter>
    <filter
       style="color-interpolation-filters:sRGB;"
       inkscape:label="Cross Blur"
       id="filter1048">
      <feColorMatrix
         in="SourceGraphic"
         values="1 0 0 0 0 0 1 0 0 0 0 0 1 0 0 -0.2125 -0.7154 -0.0721 1 0 "
         result="colormatrix"
         id="feColorMatrix1038" />
      <feComposite
         in="SourceGraphic"
         in2="colormatrix"
         operator="arithmetic"
         k2="1"
         k3="0"
         k4="0"
         result="composite"
         id="feComposite1040" />
      <feGaussianBlur
         stdDeviation="5 0.01"
         result="blur1"
         id="feGaussianBlur1042" />
      <feGaussianBlur
         in="composite"
         stdDeviation="0.01 5"
         result="blur2"
         id="feGaussianBlur1044" />
      <feBlend
         in="blur2"
         in2="blur1"
         mode="darken"
         result="blend"
         id="feBlend1046" />
    </filter>
    <filter
       inkscape:label="Cross Blur"
       inkscape:menu="Blurs"
       inkscape:menu-tooltip="Blur the contents of objects, preserving the outline and adding progressive transparency at edges"
       style="color-interpolation-filters:sRGB;"
       id="filter1088">
      <feTurbulence
         numOctaves="3"
         baseFrequency="0.040 0.107"
         type="fractalNoise"
         id="feTurbulence1078" />
      <feColorMatrix
         result="result0"
         values="1 0 0 0 0 0 1 0 0 0 0 0 1 0 0 0 0 0 5 -2.7"
         id="feColorMatrix1080" />
      <feFlood
         flood-opacity="1"
         flood-color="rgb(255,255,255)"
         id="feFlood1082" />
      <feComposite
         operator="in"
         in2="result0"
         id="feComposite1084" />
      <feComposite
         operator="atop"
         in2="SourceGraphic"
         id="feComposite1086"
         result="fbSourceGraphic" />
      <feColorMatrix
         result="fbSourceGraphicAlpha"
         in="fbSourceGraphic"
         values="0 0 0 -1 0 0 0 0 -1 0 0 0 0 -1 0 0 0 0 1 0"
         id="feColorMatrix1090" />
      <feGaussianBlur
         id="feGaussianBlur1092"
         result="result6"
         stdDeviation="3"
         in="fbSourceGraphic" />
      <feColorMatrix
         id="feColorMatrix1094"
         values="1 0 0 0 0 0 1 0 0 0 0 0 1 0 0 0 0 0 1 0 "
         result="result7"
         in="fbSourceGraphic" />
      <feComposite
         in2="result7"
         id="feComposite1096"
         operator="in"
         in="result6"
         result="fbSourceGraphic" />
      <feColorMatrix
         result="fbSourceGraphicAlpha"
         in="fbSourceGraphic"
         values="0 0 0 -1 0 0 0 0 -1 0 0 0 0 -1 0 0 0 0 1 0"
         id="feColorMatrix1098" />
      <feColorMatrix
         id="feColorMatrix1100"
         in="fbSourceGraphic"
         values="1 0 0 0 0 0 1 0 0 0 0 0 1 0 0 -0.2125 -0.7154 -0.0721 1 0 "
         result="colormatrix" />
      <feComposite
         in2="colormatrix"
         id="feComposite1102"
         in="fbSourceGraphic"
         operator="arithmetic"
         k2="1"
         k3="0"
         k4="0"
         result="composite" />
      <feGaussianBlur
         id="feGaussianBlur1104"
         stdDeviation="5 0.01"
         result="blur1" />
      <feGaussianBlur
         id="feGaussianBlur1106"
         in="composite"
         stdDeviation="0.01 5"
         result="blur2" />
      <feBlend
         in2="blur1"
         id="feBlend1108"
         in="blur2"
         mode="darken"
         result="blend" />
    </filter>
  </defs>
  <sodipodi:namedview
     pagecolor="#ffffff"
     bordercolor="#666666"
     borderopacity="1"
     objecttolerance="10"
     gridtolerance="10"
     guidetolerance="10"
     inkscape:pageopacity="0"
     inkscape:pageshadow="2"
     inkscape:window-width="1920"
     inkscape:window-height="1009"
     id="namedview847"
     showgrid="false"
     inkscape:zoom="12.403831"
     inkscape:cx="14.120604"
     inkscape:cy="19.892403"
     inkscape:window-x="-8"
     inkscape:window-y="-8"
     inkscape:window-maximized="1"
     inkscape:current-layer="svg845" />
  <path
     sodipodi:type="spiral"
     style="fill:none;fill-rule:evenodd;stroke:#ffcc00;filter:url(#filter1048)"
     id="path928"
     sodipodi:cx="12.427554"
     sodipodi:cy="13.225653"
     sodipodi:expansion="1"
     sodipodi:revolution="3"
     sodipodi:radius="5.9508996"
     sodipodi:argument="-18.763233"
     sodipodi:t0="0"
     transform="matrix(1.0761055,0,0,1.0409846,-9.9221714,0.45534333)"
     d="m 12.427554,13.225653 c 0.297258,0.02572 0.111981,0.413388 -0.04276,0.494061 -0.419325,0.21862 -0.856649,-0.18624 -0.945368,-0.579571 -0.158699,-0.703578 0.451492,-1.314626 1.116388,-1.396676 0.975761,-0.120411 1.781028,0.718484 1.847982,1.653206 0.08924,1.245837 -0.985847,2.25071 -2.190022,2.299289 -1.515331,0.06113 -2.722028,-1.25333 -2.7505956,-2.726839 -0.034599,-1.784618 1.5208666,-3.1942808 3.2636556,-3.2019028 2.053817,-0.00898 3.667118,1.7884358 3.653209,3.8004728 -0.01606,2.322976 -2.056026,4.140346 -4.337289,4.104516 -2.5921159,-0.04071 -4.6138472,-2.323633 -4.5558228,-4.874106 0.065095,-2.8612461 2.5912518,-5.0875482 5.4109228,-5.00713 3.13037,0.089279 5.561398,2.858879 5.458437,5.94774" />
  <g
     id="g1036"
     transform="matrix(0.01783447,0,0,0.01394722,-4.9737624,6.6737595)">
    <path
       d="M 512,960 C 419.2,960 352,760 352,512 352,264 419.2,64 512,64 c 92.8,0 160,200 160,448 0,248 -67.2,448 -160,448 z m 0,-32 C 577.6,928 640,742.4 640,512 640,281.6 577.6,96 512,96 446.4,96 384,281.6 384,512 c 0,230.4 62.4,416 128,416 z"
       fill="#050d42"
       id="path1016" />
    <path
       d="M 124.8,736 C 76.8,656 217.6,497.6 432,372.8 646.4,248 852.8,208 899.2,288 945.6,368 806.4,526.4 592,651.2 377.6,776 171.2,816 124.8,736 Z M 152,720 c 33.6,57.6 225.6,17.6 424,-97.6 C 774.4,507.2 905.6,361.6 872,304 838.4,246.4 646.4,286.4 448,401.6 249.6,516.8 118.4,662.4 152,720 Z"
       fill="#050d42"
       id="path1018" />
    <path
       d="M 899.2,736 C 852.8,816 644.8,774.4 432,651.2 219.2,528 76.8,368 124.8,288 172.8,208 379.2,249.6 592,372.8 804.8,496 947.2,656 899.2,736 Z M 872,720 C 905.6,662.4 774.4,516.8 576,401.6 377.6,286.4 184,246.4 152,304 120,361.6 249.6,507.2 448,622.4 646.4,737.6 840,777.6 872,720 Z"
       fill="#050d42"
       id="path1020" />
    <path
       d="m 512,592 c -44.8,0 -80,-35.2 -80,-80 0,-44.8 35.2,-80 80,-80 44.8,0 80,35.2 80,80 0,44.8 -35.2,80 -80,80 z M 272,312 c -27.2,0 -48,-20.8 -48,-48 0,-27.2 20.8,-48 48,-48 27.2,0 48,20.8 48,48 0,27.2 -20.8,48 -48,48 z m 144,568 c -27.2,0 -48,-20.8 -48,-48 0,-27.2 20.8,-48 48,-48 27.2,0 48,20.8 48,48 0,27.2 -20.8,48 -48,48 z M 864,448 c -27.2,0 -48,-20.8 -48,-48 0,-27.2 20.8,-48 48,-48 27.2,0 48,20.8 48,48 0,27.2 -20.8,48 -48,48 z"
       fill="#2f4bff"
       id="path1022" />
  </g>
  <path
     sodipodi:type="spiral"
     style="fill:none;fill-rule:evenodd;stroke:#0000ff;filter:url(#filter1088)"
     id="path1076"
     sodipodi:cx="6.2077594"
     sodipodi:cy="31.038797"
     sodipodi:expansion="1"
     sodipodi:revolution="3"
     sodipodi:radius="7.4315081"
     sodipodi:argument="-18.35194"
     sodipodi:t0="0"
     transform="matrix(0.97359235,0,0,0.92273438,-2.7221159,-0.67264441)"
     d="m 6.2077594,31.038797 c 0.3274157,0.177856 -0.078211,0.529098 -0.295608,0.544187 -0.5891333,0.04089 -0.8875884,-0.640877 -0.792765,-1.135402 0.1696167,-0.884591 1.1731527,-1.279384 1.9751968,-1.041344 1.1770319,0.349334 1.6799562,1.711625 1.2899222,2.814991 -0.519854,1.470614 -2.2521619,2.084098 -3.6547857,1.538501 -1.7650589,-0.686578 -2.4900514,-2.793651 -1.7870793,-4.49458 0.8513934,-2.060054 3.3356686,-2.897048 5.3343745,-2.035658 2.3554061,1.015118 3.3046981,3.878016 2.2842361,6.174169 -1.1781624,2.651 -4.420582,3.712784 -7.0139631,2.532815 C 0.60052352,34.59572 -0.5738872,30.973172 0.76589436,28.082718 2.2689268,24.840065 6.2720321,23.55293 9.4594467,25.052746 c 3.5386343,1.66508 4.9385683,6.049057 3.2785503,9.533347" />
</svg>
